<svg xmlns="http://www.w3.org/2000/svg" width="957" height="1055" viewBox="0 0 957 1055">
<g>
<path d="M 214.71 688.99 C199.86,690.52 199.12,690.45 197.88,687.25 C197.29,685.74 193.75,676.40 190.01,666.50 C182.45,646.47 168.61,609.90 160.50,588.50 C150.32,561.65 141.03,537.09 118.52,477.50 C106.06,444.50 90.08,402.20 83.01,383.50 C75.94,364.80 64.90,335.55 58.47,318.50 C44.20,280.67 28.88,240.20 13.99,201.00 C13.50,199.70 13.03,198.45 12.57,197.25 C3.00,172.06 1.66,168.53 2.36,168.06 C2.47,167.98 2.64,167.99 2.84,168.00 C2.89,168.00 2.95,168.00 3.02,168.00 L 3.05 168.00 C3.13,168.00 3.21,168.00 3.28,168.00 C4.45,168.04 5.59,168.74 24.50,180.21 C66.52,205.70 81.84,214.97 138.50,249.23 C172.60,269.84 206.12,290.12 213.00,294.30 C219.88,298.48 228.43,303.64 232.00,305.78 C240.14,310.63 278.36,333.77 312.50,354.51 C326.80,363.19 341.65,372.18 345.50,374.49 C349.35,376.79 368.70,388.49 388.50,400.49 C408.30,412.48 430.92,426.17 438.77,430.90 C446.62,435.63 454.95,440.67 457.27,442.10 C459.60,443.53 474.55,452.59 490.50,462.22 C506.45,471.86 528.72,485.34 540.00,492.19 C551.28,499.03 568.38,509.38 578.00,515.17 C587.62,520.97 609.45,534.18 626.50,544.52 C643.55,554.86 660.65,565.21 664.50,567.52 C668.35,569.82 684.33,579.48 700.00,588.99 C715.67,598.49 737.50,611.67 748.50,618.27 C749.85,619.08 751.11,619.84 752.30,620.55 C767.29,629.54 769.26,630.72 769.10,631.22 C769.06,631.34 768.91,631.42 768.78,631.55 C768.20,632.13 447.88,667.84 419.90,670.44 C410.88,671.28 363.23,675.57 314.00,679.97 C264.77,684.38 220.09,688.43 214.71,688.99 ZM 792.45 600.75 C792.24,601.44 791.71,601.98 791.28,601.96 C790.85,601.94 785.33,598.74 779.00,594.86 C772.67,590.98 763.45,585.44 758.50,582.54 C753.55,579.64 718.67,558.69 681.00,535.98 C643.33,513.28 604.94,490.19 595.70,484.69 C584.81,478.20 579.08,474.22 579.41,473.38 C579.68,472.66 589.31,459.57 600.79,444.29 C612.28,429.00 659.91,365.42 706.64,303.00 C753.37,240.57 823.08,147.46 861.55,96.08 C902.83,40.94 931.63,3.34 931.82,4.31 C932.00,5.22 931.18,9.91 930.02,14.73 C928.85,19.55 927.26,26.20 926.49,29.50 C925.72,32.80 918.08,65.43 909.53,102.00 C900.97,138.57 893.32,171.20 892.52,174.50 C891.73,177.80 885.87,202.77 879.51,230.00 C873.15,257.23 867.08,283.10 866.03,287.50 C864.97,291.90 861.59,306.30 858.51,319.50 C855.42,332.70 847.77,365.33 841.50,392.00 C835.24,418.67 824.67,463.67 818.04,492.00 C811.40,520.33 805.32,546.20 804.53,549.50 C803.75,552.80 802.16,559.55 801.01,564.50 C795.91,586.44 792.81,599.59 792.45,600.75 ZM 325.21 1044.70 C322.30,1047.06 319.71,1049.00 319.46,1049.00 C319.42,1049.00 319.37,1049.00 319.33,1049.01 C319.25,1049.02 319.18,1049.03 319.12,1049.00 C318.64,1048.72 320.08,1045.07 335.12,1007.05 L 337.71 1000.50 C342.93,987.30 352.15,963.90 358.19,948.50 C364.23,933.10 373.34,909.92 378.44,897.00 C394.60,856.01 405.48,828.39 418.01,796.50 C445.48,726.59 451.09,712.51 451.78,711.82 C452.45,711.15 467.41,709.54 567.00,699.45 C639.19,692.13 661.08,689.91 679.50,688.01 C750.74,680.67 778.63,677.95 780.12,678.21 C781.19,678.39 769.66,688.23 749.17,704.62 C731.20,718.99 694.73,748.24 668.13,769.62 C641.52,791.01 616.03,811.42 611.48,815.00 C606.92,818.58 585.27,835.92 563.35,853.54 C541.43,871.16 500.77,903.80 473.00,926.08 C350.68,1024.21 330.20,1040.65 325.21,1044.70 ZM 296.47 1049.05 C295.75,1050.21 27.00,1050.37 27.00,1049.21 C27.00,1048.23 35.77,1036.90 84.48,975.00 C92.49,964.83 101.47,953.35 104.44,949.50 C107.41,945.65 119.58,930.12 131.49,915.00 C143.39,899.88 160.87,877.63 170.32,865.58 C189.10,841.61 202.30,824.83 205.64,820.67 C207.80,817.99 210.00,817.14 210.00,818.99 C210.00,819.54 213.79,829.78 218.43,841.74 C223.06,853.71 237.95,892.75 251.52,928.50 C265.08,964.25 277.91,998.00 280.03,1003.50 C293.19,1037.70 296.99,1048.21 296.47,1049.05 ZM 299.66 881.50 C298.34,883.18 297.12,884.73 296.00,886.16 C285.23,899.88 282.82,902.94 281.92,902.55 C281.57,902.40 281.45,901.71 281.14,900.92 C280.63,899.59 277.21,890.85 273.55,881.50 C267.21,865.28 261.12,849.61 232.58,776.00 C225.65,758.12 219.29,741.98 218.44,740.13 C217.60,738.27 217.05,736.64 217.21,736.51 C217.37,736.38 263.62,731.70 320.00,726.12 C376.38,720.54 423.96,715.73 425.75,715.44 C427.54,715.15 429.00,715.28 429.00,715.72 C429.00,716.17 427.31,718.61 425.25,721.15 C421.04,726.33 399.57,753.76 396.53,757.85 C395.45,759.31 392.52,763.04 390.03,766.14 C387.54,769.23 382.92,775.08 379.76,779.14 C376.60,783.19 368.36,793.70 361.44,802.50 C354.52,811.30 346.77,821.20 344.23,824.50 C338.34,832.15 318.82,857.11 299.66,881.50 Z" fill="rgb(224,30,46)"/>
<path d="M 0.00 527.50 L 0.00 0.00 L 478.50 0.00 L 957.00 0.00 L 957.00 527.50 L 957.00 1055.00 L 478.50 1055.00 L 0.00 1055.00 L 0.00 527.50 ZM 296.47 1049.05 C296.99,1048.21 293.19,1037.70 280.03,1003.50 C277.91,998.00 265.08,964.25 251.52,928.50 C237.95,892.75 223.06,853.71 218.43,841.74 C213.79,829.78 210.00,819.54 210.00,818.99 C210.00,817.14 207.80,817.99 205.64,820.67 C202.30,824.83 189.10,841.61 170.32,865.58 C160.87,877.63 143.39,899.88 131.49,915.00 C119.58,930.12 107.41,945.65 104.44,949.50 C101.47,953.35 92.49,964.83 84.48,975.00 C35.77,1036.90 27.00,1048.23 27.00,1049.21 C27.00,1050.37 295.75,1050.21 296.47,1049.05 ZM 325.21 1044.70 C330.20,1040.65 350.68,1024.21 473.00,926.08 C500.77,903.80 541.43,871.16 563.35,853.54 C585.27,835.92 606.92,818.58 611.48,815.00 C616.03,811.42 641.52,791.01 668.13,769.62 C694.73,748.24 731.20,718.99 749.17,704.62 C769.66,688.23 781.19,678.39 780.12,678.21 C778.63,677.95 750.74,680.67 679.50,688.01 C661.08,689.91 639.19,692.13 567.00,699.45 C467.41,709.54 452.45,711.15 451.78,711.82 C451.09,712.51 445.48,726.59 418.01,796.50 C405.48,828.39 394.60,856.01 378.44,897.00 C373.34,909.92 364.23,933.10 358.19,948.50 C352.15,963.90 342.93,987.30 337.71,1000.50 C317.58,1051.39 318.48,1049.00 319.46,1049.00 C319.71,1049.00 322.30,1047.06 325.21,1044.70 ZM 299.66 881.50 C318.82,857.11 338.34,832.15 344.23,824.50 C346.77,821.20 354.52,811.30 361.44,802.50 C368.36,793.70 376.60,783.19 379.76,779.14 C382.92,775.08 387.54,769.23 390.03,766.14 C392.52,763.04 395.45,759.31 396.53,757.85 C399.57,753.76 421.04,726.33 425.25,721.15 C427.31,718.61 429.00,716.17 429.00,715.72 C429.00,715.28 427.54,715.15 425.75,715.44 C423.96,715.73 376.38,720.54 320.00,726.12 C263.62,731.70 217.37,736.38 217.21,736.51 C217.05,736.64 217.60,738.27 218.44,740.13 C219.29,741.98 225.65,758.12 232.58,776.00 C261.12,849.61 267.21,865.28 273.55,881.50 C277.21,890.85 280.63,899.59 281.14,900.92 C282.30,903.92 280.81,905.49 299.66,881.50 ZM 214.71 688.99 C220.09,688.43 264.77,684.38 314.00,679.97 C363.23,675.57 410.88,671.28 419.90,670.44 C447.88,667.84 768.20,632.13 768.78,631.55 C769.53,630.81 770.91,631.71 748.50,618.27 C737.50,611.67 715.67,598.49 700.00,588.99 C684.33,579.48 668.35,569.82 664.50,567.52 C660.65,565.21 643.55,554.86 626.50,544.52 C609.45,534.18 587.62,520.97 578.00,515.17 C568.38,509.38 551.28,499.03 540.00,492.19 C528.72,485.34 506.45,471.86 490.50,462.22 C474.55,452.59 459.60,443.53 457.27,442.10 C454.95,440.67 446.62,435.63 438.77,430.90 C430.92,426.17 408.30,412.48 388.50,400.49 C368.70,388.49 349.35,376.79 345.50,374.49 C341.65,372.18 326.80,363.19 312.50,354.51 C278.36,333.77 240.14,310.63 232.00,305.78 C228.43,303.64 219.88,298.48 213.00,294.30 C206.12,290.12 172.60,269.84 138.50,249.23 C81.84,214.97 66.52,205.70 24.50,180.21 C4.18,167.89 4.38,168.00 3.02,168.00 C1.40,168.00 0.95,166.65 13.99,201.00 C28.88,240.20 44.20,280.67 58.47,318.50 C64.90,335.55 75.94,364.80 83.01,383.50 C90.08,402.20 106.06,444.50 118.52,477.50 C141.03,537.09 150.32,561.65 160.50,588.50 C168.61,609.90 182.45,646.47 190.01,666.50 C193.75,676.40 197.29,685.74 197.88,687.25 C199.12,690.45 199.86,690.52 214.71,688.99 ZM 792.45 600.75 C792.81,599.59 795.91,586.44 801.01,564.50 C802.16,559.55 803.75,552.80 804.53,549.50 C805.32,546.20 811.40,520.33 818.04,492.00 C824.67,463.67 835.24,418.67 841.50,392.00 C847.77,365.33 855.42,332.70 858.51,319.50 C861.59,306.30 864.97,291.90 866.03,287.50 C867.08,283.10 873.15,257.23 879.51,230.00 C885.87,202.77 891.73,177.80 892.52,174.50 C893.32,171.20 900.97,138.57 909.53,102.00 C918.08,65.43 925.72,32.80 926.49,29.50 C927.26,26.20 928.85,19.55 930.02,14.73 C931.18,9.91 932.00,5.22 931.82,4.31 C931.63,3.34 902.83,40.94 861.55,96.08 C823.08,147.46 753.37,240.57 706.64,303.00 C659.91,365.42 612.28,429.00 600.79,444.29 C589.31,459.57 579.68,472.66 579.41,473.38 C579.08,474.22 584.81,478.20 595.70,484.69 C604.94,490.19 643.33,513.28 681.00,535.98 C718.67,558.69 753.55,579.64 758.50,582.54 C763.45,585.44 772.67,590.98 779.00,594.86 C785.33,598.74 790.85,601.94 791.28,601.96 C791.71,601.98 792.24,601.44 792.45,600.75 Z" fill="rgb(254,254,254)"/>
</g>
</svg>
